<svg width="232" height="116" viewBox="0 0 232 116" fill="none" xmlns="http://www.w3.org/2000/svg">
<g clip-path="url(#clip0_278_499)">
<path d="M63.3801 94.8744C69.682 94.8744 74.7907 89.7517 74.7907 83.4326C74.7907 77.1135 69.682 71.9908 63.3801 71.9908C57.0782 71.9908 51.9695 77.1135 51.9695 83.4326C51.9695 89.7517 57.0782 94.8744 63.3801 94.8744Z" fill="#E4E4E4"/>
<path opacity="0.2" d="M54.9551 75.7904C53.8907 78.2869 53.7463 81.0816 54.5477 83.675C55.3491 86.2684 57.044 88.4916 59.3296 89.9473C61.6152 91.4031 64.3426 91.9964 67.0243 91.6213C69.706 91.2463 72.1674 89.9273 73.9685 87.9C73.3184 89.4253 72.3452 90.7906 71.1166 91.9013C69.888 93.012 68.4332 93.8416 66.8531 94.3326C65.2729 94.8236 63.6053 94.9642 61.9655 94.7447C60.3258 94.5253 58.7533 93.951 57.3569 93.0616C55.9606 92.1723 54.7737 90.9891 53.8786 89.5942C52.9835 88.1992 52.4016 86.6258 52.1731 84.9829C51.9446 83.3401 52.0751 81.667 52.5554 80.0797C53.0358 78.4924 53.8546 77.0288 54.9551 75.7904Z" fill="black"/>
<path d="M63.4117 83.4327H63.4429L64.0072 115.872H62.8159L63.4117 83.4327Z" fill="#3F3D56"/>
<path d="M40.2931 73.537C52.9989 73.537 63.299 63.2088 63.299 50.4683C63.299 37.7278 52.9989 27.3996 40.2931 27.3996C27.5873 27.3996 17.2872 37.7278 17.2872 50.4683C17.2872 63.2088 27.5873 73.537 40.2931 73.537Z" fill="#E4E4E4"/>
<path opacity="0.2" d="M23.3063 35.0602C21.1604 40.0936 20.8693 45.7282 22.485 50.957C24.1007 56.1859 27.518 60.6683 32.1262 63.6032C36.7344 66.5382 42.2332 67.7345 47.6401 66.9783C53.0469 66.2221 58.0095 63.5628 61.6409 59.4755C60.33 62.5507 58.368 65.3034 55.8909 67.5428C53.4137 69.7822 50.4806 71.4548 47.2948 72.4447C44.109 73.4346 40.7466 73.7182 37.4407 73.2757C34.1347 72.8332 30.9643 71.6753 28.1489 69.8822C25.3335 68.0891 22.9406 65.7037 21.1359 62.8912C19.3312 60.0787 18.1579 56.9064 17.6973 53.5941C17.2367 50.2817 17.4997 46.9086 18.4682 43.7083C19.4367 40.5081 21.0876 37.5572 23.3063 35.0602Z" fill="black"/>
<path d="M40.3563 50.4682H40.4196L41.5573 115.872H39.1555L40.3563 50.4682Z" fill="#3F3D56"/>
<path d="M191.972 82.0194H86.5227V113.364H191.972V82.0194Z" fill="#F0F0F0"/>
<path d="M145.395 88.4973H133.099V113.364H145.395V88.4973Z" fill="#CACACA"/>
<path d="M185.824 45.0323H92.6704V73.8697H185.824V45.0323Z" fill="#F0F0F0"/>
<path d="M195.268 46.8085H83.2262C83.0392 46.8085 82.8564 46.7524 82.7014 46.6474C82.5464 46.5425 82.4262 46.3934 82.3563 46.2194C82.2865 46.0454 82.2701 45.8545 82.3093 45.6711C82.3485 45.4877 82.4415 45.3202 82.5764 45.1903L113.197 15.6766V2.82105C113.198 2.57174 113.297 2.33272 113.472 2.15643C113.648 1.98015 113.887 1.88098 114.135 1.8807H120.179C120.427 1.88097 120.666 1.98014 120.842 2.15643C121.017 2.33272 121.116 2.57174 121.117 2.82105V8.04399L123.429 5.81474C127.214 2.16679 132.236 0.0904072 137.485 0.00288342C142.734 -0.0846403 147.821 1.82318 151.725 5.34294L195.895 45.1688C196.036 45.296 196.135 45.4631 196.18 45.6481C196.224 45.8331 196.212 46.0272 196.144 46.2048C196.076 46.3824 195.956 46.5352 195.799 46.643C195.643 46.7508 195.458 46.8085 195.268 46.8085V46.8085Z" fill="#CACACA"/>
<path d="M117.261 52.3461C118.041 52.3461 118.813 52.5002 119.534 52.7995C120.255 53.0988 120.909 53.5374 121.461 54.0905C122.012 54.6435 122.45 55.3 122.748 56.0226C123.047 56.7451 123.201 57.5196 123.201 58.3017V66.3469H111.322V58.3017C111.322 57.5196 111.476 56.7451 111.774 56.0226C112.072 55.3 112.51 54.6435 113.061 54.0905C113.613 53.5374 114.268 53.0988 114.988 52.7995C115.709 52.5002 116.481 52.3461 117.261 52.3461Z" fill="white"/>
<path d="M139.247 52.4506C140.822 52.4506 142.333 53.0781 143.447 54.195C144.561 55.3118 145.186 56.8266 145.186 58.4062V66.4514H133.308V58.4062C133.308 56.8266 133.934 55.3118 135.047 54.195C136.161 53.0781 137.672 52.4506 139.247 52.4506Z" fill="white"/>
<path d="M161.233 52.5551C162.808 52.5551 164.319 53.1825 165.433 54.2994C166.547 55.4163 167.172 56.9311 167.172 58.5106V66.5559H155.294V58.5106C155.294 56.9311 155.919 55.4163 157.033 54.2994C158.147 53.1825 159.658 52.5551 161.233 52.5551Z" fill="white"/>
<path d="M169.986 88.1839C171.561 88.1839 173.072 88.8113 174.185 89.9282C175.299 91.0451 175.925 92.5599 175.925 94.1394V102.185H164.046V94.1394C164.046 92.5599 164.672 91.0451 165.786 89.9282C166.9 88.8113 168.411 88.1839 169.986 88.1839Z" fill="white"/>
<path d="M111.218 88.1839C112.793 88.1839 114.304 88.8113 115.418 89.9282C116.531 91.0451 117.157 92.5599 117.157 94.1394V102.185H105.278V94.1394C105.278 93.3573 105.432 92.5829 105.731 91.8603C106.029 91.1378 106.467 90.4812 107.018 89.9282C107.57 89.3752 108.224 88.9365 108.945 88.6372C109.665 88.3379 110.438 88.1839 111.218 88.1839Z" fill="white"/>
<path d="M207.377 82.5088L187.596 73.7322C187.49 73.6851 187.375 73.6607 187.259 73.6607H92.9857C92.8781 73.6607 92.7715 73.6816 92.6718 73.7223L71.1401 82.4989C70.9611 82.5719 70.8128 82.705 70.7209 82.8755C70.6289 83.046 70.5989 83.2433 70.636 83.4335C70.6731 83.6238 70.7749 83.7952 70.9242 83.9184C71.0734 84.0417 71.2607 84.109 71.4541 84.109H77.0405V112.946H76.4153V115.872H202.079V112.946H201.037V84.109H207.04C207.231 84.109 207.416 84.0432 207.565 83.9224C207.713 83.8017 207.816 83.6335 207.855 83.446C207.895 83.2585 207.869 83.063 207.782 82.8924C207.695 82.7218 207.552 82.5863 207.377 82.5088ZM199.37 112.946H78.7077V84.109H199.37V112.946Z" fill="#CACACA"/>
<path d="M124.659 65.1976H109.446V67.7052H124.659V65.1976Z" fill="#CACACA"/>
<path d="M146.958 65.1976H131.745V67.7052H146.958V65.1976Z" fill="#CACACA"/>
<path d="M169.256 65.1976H154.043V67.7052H169.256V65.1976Z" fill="#CACACA"/>
<path d="M177.592 101.349H162.379V103.856H177.592V101.349Z" fill="#CACACA"/>
<path d="M118.616 101.349H103.403V103.856H118.616V101.349Z" fill="#CACACA"/>
<path d="M231.879 116H0.255373C0.187644 116 0.122689 115.973 0.0747968 115.925C0.0269051 115.877 0 115.812 0 115.744C0 115.676 0.0269051 115.611 0.0747968 115.563C0.122689 115.515 0.187644 115.488 0.255373 115.488H231.879C231.946 115.488 232.011 115.515 232.059 115.563C232.107 115.611 232.134 115.676 232.134 115.744C232.134 115.812 232.107 115.877 232.059 115.925C232.011 115.973 231.946 116 231.879 116Z" fill="#3F3D56"/>
<path d="M173.619 44.6024C173.619 44.7663 173.617 44.9327 173.614 45.0966C173.612 45.2938 173.607 45.4884 173.599 45.6855C173.591 45.8571 173.584 46.0261 173.573 46.1951C173.543 46.7611 173.494 47.3244 173.428 47.8903C173.413 48.0337 173.395 48.1746 173.374 48.318C173.359 48.4281 173.344 48.5408 173.326 48.6534C173.308 48.7789 173.29 48.9044 173.269 49.0299C173.229 49.2962 173.183 49.5625 173.132 49.8288C173.106 49.9619 173.081 50.0951 173.052 50.2282C172.999 50.492 172.94 50.7583 172.879 51.0221C172.874 51.0426 172.869 51.0656 172.864 51.0861C172.833 51.2167 172.802 51.3447 172.769 51.4753C172.759 51.5137 172.751 51.5496 172.738 51.588C172.715 51.6853 172.69 51.7826 172.664 51.8799C172.629 52.0156 172.593 52.1488 172.555 52.2845C172.493 52.4945 172.432 52.7019 172.368 52.9119C172.36 52.9337 172.353 52.9559 172.348 52.9785C172.225 53.3754 172.095 53.7672 171.952 54.1564C171.878 54.3612 171.799 54.5687 171.719 54.7735C171.64 54.9783 171.559 55.1832 171.474 55.3855C171.393 55.5827 171.308 55.7799 171.224 55.9745C171.204 56.0206 171.183 56.0667 171.16 56.1128C171.071 56.315 170.979 56.5122 170.884 56.7094C170.882 56.712 170.882 56.7171 170.879 56.7196C170.805 56.8784 170.726 57.0372 170.647 57.1934C170.647 57.1981 170.645 57.2027 170.642 57.2062C170.565 57.3598 170.486 57.5135 170.404 57.6645L170.274 57.9129L170.259 57.9411C170.095 58.2458 169.927 58.548 169.748 58.8476C169.71 58.9142 169.671 58.9807 169.633 59.0447C169.595 59.1113 169.554 59.1779 169.513 59.2419C169.488 59.288 169.459 59.3341 169.429 59.3802C169.375 59.4673 169.321 59.5569 169.265 59.6439C169.255 59.6619 169.242 59.6798 169.232 59.6977C169.135 59.8488 169.038 59.9973 168.941 60.1484C168.821 60.3302 168.698 60.5095 168.573 60.6887L165.8 65.1392L165.68 65.0394L165.647 65.0086H165.644L165.534 64.9164L165.233 64.6604C165.141 64.75 165.052 64.8396 164.96 64.9267C164.924 64.9625 164.886 64.9958 164.85 65.0317C164.822 65.0573 164.796 65.0829 164.768 65.1085C159.974 69.8035 153.596 72.5223 146.897 72.7266H146.89C141.819 72.8662 136.799 71.6783 132.326 69.2799C132.226 69.2286 132.129 69.1774 132.032 69.1185C131.45 68.801 130.88 68.4655 130.321 68.107C130.318 68.1045 130.316 68.1045 130.313 68.1019C129.665 67.641 129.031 67.1493 128.413 66.6269C125.098 63.8247 122.475 60.2904 120.75 56.3012C119.025 52.312 118.245 47.9764 118.472 43.6344C118.479 43.4628 118.49 43.2938 118.502 43.1222C118.543 42.5025 118.606 41.8854 118.691 41.2708C118.714 41.0993 118.74 40.9277 118.765 40.7587H173.359C173.466 41.5423 173.54 42.3301 173.581 43.1222C173.607 43.6165 173.619 44.1082 173.619 44.6024Z" fill="#F0F0F0"/>
<path d="M173.359 40.7588C172.376 34.2047 169.08 28.2219 164.071 23.8979C159.062 19.5739 152.672 17.1957 146.062 17.1957C139.453 17.1957 133.062 19.5739 128.053 23.8979C123.044 28.2219 119.748 34.2047 118.765 40.7588C118.74 40.9278 118.714 41.0993 118.691 41.2709C118.607 41.8855 118.544 42.5026 118.502 43.1223H173.581C173.54 42.331 173.466 41.5432 173.359 40.7588Z" fill="#6C63FF"/>
<path d="M147.85 69.2791H132.033V56.5917C132.325 50.7935 137.267 50.3253 141.911 50.6364C142.691 50.6364 143.463 50.7904 144.184 51.0896C144.905 51.3889 145.559 51.8275 146.111 52.3805C146.662 52.9336 147.1 53.5901 147.398 54.3126C147.697 55.0352 147.85 55.8096 147.85 56.5917V69.2791Z" fill="#6C63FF"/>
<path d="M132.032 60.2586V60.2611C132.032 60.2637 132.034 60.2637 132.037 60.2637L132.032 60.2586ZM125.671 40.7588C125.66 40.8228 125.648 40.8868 125.637 40.9508C125.648 40.8868 125.66 40.8228 125.673 40.7588H125.671ZM125.354 43.1223C125.346 43.2196 125.339 43.3169 125.333 43.4142C125.339 43.3169 125.346 43.2196 125.356 43.1223C125.356 43.1043 125.357 43.0864 125.359 43.0685C125.356 43.0864 125.356 43.1044 125.354 43.1223ZM132.032 60.2611C132.032 60.2637 132.034 60.2637 132.037 60.2637L132.032 60.2586V60.2611ZM125.671 40.7588C125.66 40.8228 125.648 40.8868 125.637 40.9508C125.648 40.8868 125.66 40.8228 125.673 40.7588H125.671ZM125.333 43.4142C125.339 43.3169 125.346 43.2196 125.356 43.1223C125.356 43.1043 125.357 43.0864 125.359 43.0685C125.356 43.0864 125.356 43.1044 125.354 43.1223C125.346 43.2196 125.339 43.3169 125.333 43.4142ZM204.228 90.521C204.179 90.4682 204.126 90.4186 204.07 90.3724L204.068 90.3699L191.421 79.6687L191.095 79.3922L189.851 78.3397L189.539 78.0759L187.767 76.5754L187.282 76.1656L186.278 75.3155L185.765 74.8802L180.923 70.7856L178.147 68.4374L177.774 68.1225L169.595 61.2009C169.72 61.0216 169.842 60.8424 169.962 60.6606C170.06 60.5095 170.157 60.361 170.254 60.2099C170.264 60.192 170.277 60.174 170.287 60.1561C170.343 60.069 170.397 59.9794 170.45 59.8924C170.481 59.8463 170.509 59.8002 170.534 59.7541C170.575 59.6901 170.616 59.6235 170.655 59.5569C170.693 59.4929 170.731 59.4263 170.769 59.3598C170.948 59.0602 171.117 58.758 171.28 58.4533L171.295 58.4251L171.426 58.1767C171.507 58.0256 171.587 57.872 171.663 57.7183C171.666 57.7148 171.668 57.7103 171.668 57.7055C171.747 57.5493 171.827 57.3906 171.901 57.2318C171.903 57.2293 171.903 57.2241 171.906 57.2216C172 57.0244 172.092 56.8272 172.182 56.6249C172.205 56.5788 172.225 56.5327 172.245 56.4866C172.33 56.292 172.414 56.0949 172.496 55.8977C172.58 55.6954 172.662 55.4905 172.741 55.2857C172.82 55.0808 172.899 54.8734 172.973 54.6686C173.114 54.2768 173.246 53.8841 173.369 53.4906C173.375 53.4681 173.382 53.4459 173.39 53.424C173.453 53.2141 173.515 53.0066 173.576 52.7966C173.614 52.6609 173.65 52.5278 173.686 52.3921C173.711 52.2948 173.737 52.1975 173.76 52.1002C173.773 52.0618 173.78 52.0259 173.79 51.9875C173.824 51.8569 173.854 51.7289 173.885 51.5983C173.89 51.5778 173.895 51.5547 173.9 51.5343C173.962 51.2705 174.02 51.0042 174.074 50.7404C174.102 50.6073 174.128 50.4741 174.153 50.341C174.202 50.0747 174.25 49.8083 174.291 49.542C174.311 49.4165 174.329 49.2911 174.347 49.1656C174.365 49.0529 174.38 48.9403 174.396 48.8301C174.416 48.6867 174.434 48.5459 174.449 48.4025C174.516 47.8366 174.564 47.2732 174.595 46.7073C174.605 46.5383 174.613 46.3693 174.62 46.1977C174.628 46.0006 174.633 45.8059 174.636 45.6088C174.638 45.4449 174.641 45.2785 174.641 45.1145C174.641 44.6203 174.628 44.1287 174.603 43.6344C174.562 42.8432 174.488 42.0554 174.38 41.2709C173.465 34.5656 170.175 28.4144 165.109 23.9417C160.044 19.469 153.543 16.9734 146.794 16.9113C140.045 16.8492 133.499 19.2245 128.352 23.6032C123.206 27.9819 119.803 34.0715 118.765 40.7588C118.74 40.9278 118.714 41.0994 118.691 41.2709C118.607 41.8855 118.544 42.5026 118.502 43.1223C118.49 43.2939 118.479 43.4629 118.472 43.6344C118.245 47.9765 119.025 52.3121 120.75 56.3013C122.475 60.2905 125.098 63.8248 128.413 66.627C129.031 67.1494 129.665 67.6411 130.313 68.102C130.316 68.1046 130.318 68.1046 130.321 68.1071C130.538 68.2608 130.755 68.4118 130.975 68.5604C131.324 68.7908 131.677 69.0162 132.032 69.2313C132.06 69.2466 132.088 69.2646 132.116 69.2799C132.423 69.4643 132.732 69.641 133.041 69.8125H133.043C134.193 70.4467 135.387 70.9978 136.616 71.4617C140.22 72.8215 144.064 73.4263 147.911 73.2388H147.919C152.408 73.021 156.78 71.7238 160.664 69.4566C161.229 69.1288 161.785 68.778 162.329 68.4042C162.465 68.312 162.603 68.2172 162.735 68.1225C162.899 68.0072 163.062 67.8869 163.226 67.7665C163.228 67.7665 163.228 67.764 163.231 67.764C163.243 67.7538 163.256 67.7444 163.269 67.7358C163.379 67.6513 163.491 67.5668 163.599 67.4849C163.627 67.4644 163.655 67.4439 163.683 67.4208C163.69 67.4156 163.697 67.4096 163.703 67.4029C163.767 67.3568 163.828 67.3056 163.892 67.2569C163.956 67.2083 164.017 67.1571 164.081 67.1059C164.092 67.099 164.102 67.0913 164.112 67.0828C164.183 67.0239 164.255 66.9676 164.326 66.9087C164.4 66.8498 164.472 66.7884 164.541 66.7294C164.612 66.6705 164.681 66.6117 164.753 66.5502C164.814 66.499 164.878 66.4452 164.939 66.3889C164.96 66.3735 164.978 66.3556 164.998 66.3377C165.006 66.3301 165.014 66.3232 165.024 66.3171C165.108 66.2454 165.19 66.1712 165.271 66.0969C165.292 66.079 165.31 66.0611 165.33 66.0431C165.455 65.9305 165.58 65.8178 165.703 65.7C165.731 65.6744 165.762 65.6462 165.79 65.6206C165.818 65.595 165.843 65.5694 165.871 65.5438C165.907 65.508 165.945 65.4747 165.981 65.4389C166.073 65.3518 166.163 65.2621 166.254 65.1725L166.556 65.4286L166.666 65.5208H166.668L166.701 65.5515L166.821 65.6514L168.604 67.1622L168.642 67.1955L168.673 67.2185L168.875 67.3901L169.278 67.7332L169.682 68.0738L169.74 68.1225L171.617 69.7101L171.878 69.9303L173.688 71.4617L183.061 79.3922L183.387 79.6687L196.215 90.521L199.504 93.3045L200.727 94.339C200.987 94.5593 201.287 94.7261 201.611 94.8299C201.935 94.9337 202.276 94.9725 202.615 94.944C202.954 94.9154 203.284 94.8202 203.586 94.6636C203.889 94.5071 204.157 94.2924 204.376 94.0317C204.56 93.8154 204.706 93.5696 204.808 93.3045C204.993 92.8345 205.037 92.3203 204.934 91.8256C204.831 91.3308 204.586 90.8772 204.228 90.521ZM130.255 31.1612C132.816 28.1169 136.185 25.8615 139.971 24.6555C143.757 23.4495 147.806 23.3422 151.651 24.3458C155.495 25.3495 158.978 27.4233 161.697 30.3276C164.415 33.2319 166.259 36.8482 167.015 40.7588C167.049 40.9303 167.079 41.0993 167.107 41.2709C167.212 41.8829 167.289 42.5026 167.335 43.1223C167.347 43.2939 167.36 43.4629 167.368 43.6344C167.391 44.0185 167.401 44.4052 167.401 44.7893C167.403 47.1193 167.018 49.4333 166.262 51.6366V51.6392C165.418 54.1097 164.121 56.4006 162.439 58.3944C162.403 58.4353 162.368 58.4789 162.329 58.5199C161.992 58.9193 161.637 59.3034 161.272 59.6696C161.27 59.6722 161.267 59.6773 161.264 59.6799C161.139 59.8053 161.012 59.9334 160.884 60.0512C160.623 60.3047 160.358 60.5454 160.087 60.7758C159.681 61.1318 159.265 61.4655 158.838 61.7771C158.695 61.882 158.552 61.9845 158.407 62.0869C158.264 62.1894 158.118 62.2867 157.973 62.384C157.681 62.5786 157.385 62.7655 157.087 62.9422C156.938 63.0318 156.785 63.1189 156.635 63.2034C156.484 63.2904 156.331 63.3724 156.177 63.4518C156.024 63.5337 155.871 63.6131 155.715 63.6899C155.406 63.8461 155.095 63.9921 154.778 64.1278C154.62 64.1995 154.461 64.2661 154.303 64.3275C154.203 64.3685 154.106 64.4095 154.007 64.4453C153.968 64.4634 153.928 64.4788 153.887 64.4914C153.833 64.5145 153.779 64.5349 153.726 64.5529C153.708 64.5608 153.691 64.5676 153.672 64.5734C153.562 64.6169 153.455 64.6553 153.343 64.6937C153.182 64.7526 153.021 64.8064 152.858 64.8576C152.694 64.9114 152.533 64.9626 152.37 65.0087C152.206 65.0599 152.04 65.106 151.877 65.1495C151.711 65.1956 151.547 65.2392 151.381 65.2775C151.205 65.3237 151.029 65.3646 150.85 65.403C150.695 65.4389 150.541 65.4696 150.386 65.4978C150.24 65.5285 150.092 65.5541 149.946 65.5797C149.742 65.6156 149.538 65.6489 149.331 65.677C149.218 65.695 149.109 65.7103 148.996 65.7206C148.948 65.7282 148.902 65.7334 148.856 65.7385C148.713 65.759 148.57 65.7744 148.429 65.7871C148.391 65.7897 148.355 65.7948 148.32 65.7974C148.164 65.8128 148.005 65.8256 147.85 65.8384C147.515 65.8614 147.183 65.8768 146.849 65.8844C146.68 65.887 146.509 65.8896 146.34 65.8896C146.172 65.8896 146.003 65.887 145.835 65.8819C145.835 65.8819 145.835 65.8844 145.832 65.8819C145.83 65.8844 145.83 65.8844 145.827 65.8819C145.827 65.8822 145.826 65.8825 145.826 65.8827C145.826 65.8829 145.825 65.883 145.825 65.883C145.824 65.883 145.824 65.8829 145.823 65.8827C145.823 65.8825 145.822 65.8822 145.822 65.8819C145.814 65.8844 145.805 65.8844 145.797 65.8819C145.676 65.8819 145.556 65.8768 145.439 65.8691C145.352 65.8665 145.263 65.864 145.173 65.8563C145.053 65.8512 144.933 65.8435 144.813 65.8332C144.775 65.8332 144.737 65.8281 144.698 65.8256C144.68 65.8251 144.663 65.8234 144.645 65.8205C144.522 65.8102 144.397 65.7999 144.274 65.7871C144.213 65.782 144.149 65.7769 144.088 65.7692C143.902 65.7487 143.715 65.7257 143.531 65.7001C143.322 65.6745 143.113 65.6438 142.906 65.6053C142.809 65.5925 142.714 65.5746 142.62 65.5567C142.495 65.5362 142.369 65.5131 142.244 65.4876C142.114 65.462 141.984 65.4363 141.853 65.4056C141.749 65.3825 141.642 65.3595 141.537 65.3339C141.486 65.3237 141.435 65.3109 141.386 65.2981C141.118 65.2341 140.852 65.1649 140.589 65.0881C140.423 65.042 140.257 64.9934 140.094 64.9421C139.869 64.873 139.647 64.7987 139.425 64.7193C139.338 64.6912 139.254 64.6604 139.167 64.6272C139.08 64.599 138.996 64.5657 138.909 64.5324C138.83 64.5042 138.751 64.4735 138.674 64.4428C138.546 64.3941 138.421 64.3429 138.296 64.2917C138.038 64.1867 137.785 64.0766 137.533 63.9588C137.39 63.8897 137.247 63.8231 137.106 63.754C136.552 63.4851 136.006 63.1863 135.469 62.8577C135.336 62.7783 135.204 62.6938 135.071 62.6093C134.905 62.5069 134.744 62.3993 134.583 62.2918C134.494 62.2304 134.407 62.1715 134.32 62.11C134.159 61.9973 134.001 61.8821 133.845 61.7668C133.763 61.7079 133.682 61.6465 133.602 61.585C133.319 61.3699 133.041 61.1446 132.767 60.9141C132.637 60.804 132.507 60.6913 132.379 60.5761C132.326 60.53 132.272 60.4814 132.218 60.4327C132.157 60.3764 132.096 60.3226 132.037 60.2637L132.032 60.2586C131.943 60.1792 131.853 60.0947 131.766 60.0102C131.631 59.8822 131.498 59.7516 131.37 59.6184C131.238 59.4878 131.11 59.3521 130.985 59.219C130.857 59.0858 130.735 58.9501 130.615 58.8118C130.492 58.6761 130.372 58.5378 130.254 58.397C130.14 58.2638 130.027 58.1255 129.92 57.9898C129.659 57.6672 129.411 57.3385 129.174 57.0039C129.064 56.8503 128.96 56.6966 128.858 56.5405C128.748 56.3817 128.643 56.2204 128.543 56.059C128.439 55.8977 128.339 55.7338 128.242 55.5674C128.24 55.5617 128.236 55.5565 128.232 55.552C128.04 55.2268 127.857 54.899 127.685 54.5661C127.509 54.2281 127.343 53.8867 127.187 53.5418C127.108 53.3703 127.032 53.1961 126.96 53.022C126.812 52.6712 126.674 52.3204 126.546 51.9644C126.483 51.7929 126.424 51.6213 126.365 51.4472C126.363 51.4357 126.36 51.4245 126.355 51.4139C126.237 51.0605 126.13 50.7046 126.036 50.3461C126.033 50.341 126.033 50.3359 126.031 50.3308C125.982 50.154 125.936 49.9773 125.895 49.7981C125.854 49.6419 125.819 49.4857 125.785 49.3269C125.747 49.1502 125.709 48.9736 125.676 48.7943C125.658 48.7021 125.64 48.6099 125.625 48.5177C125.609 48.4409 125.596 48.3615 125.584 48.2847C125.571 48.2079 125.558 48.1285 125.545 48.0491C125.52 47.8929 125.497 47.7367 125.476 47.5806C125.451 47.3962 125.43 47.2118 125.41 47.0249C125.387 46.8021 125.367 46.5793 125.349 46.354C125.336 46.2028 125.328 46.0492 125.321 45.8956C125.313 45.7548 125.305 45.6139 125.303 45.4731C125.3 45.4656 125.3 45.4575 125.303 45.45C125.302 45.4497 125.302 45.4493 125.302 45.4489C125.302 45.4484 125.302 45.4479 125.302 45.4475C125.302 45.447 125.302 45.4465 125.302 45.4461C125.302 45.4456 125.302 45.4452 125.303 45.4449C125.3 45.4423 125.3 45.4423 125.303 45.4398C125.302 45.4394 125.302 45.4391 125.302 45.4386C125.302 45.4382 125.302 45.4377 125.302 45.4372C125.302 45.4367 125.302 45.4363 125.302 45.4358C125.302 45.4354 125.302 45.435 125.303 45.4347C125.3 45.3783 125.298 45.322 125.298 45.2657C125.293 45.0992 125.29 44.9328 125.29 44.7663C125.29 44.6152 125.293 44.4667 125.295 44.3156C125.3 44.1057 125.308 43.8957 125.318 43.6857C125.318 43.6396 125.323 43.5961 125.326 43.55C125.328 43.5039 125.331 43.4604 125.333 43.4143C125.339 43.317 125.346 43.2197 125.356 43.1224C125.356 43.1044 125.357 43.0864 125.359 43.0686C125.367 42.9585 125.377 42.8484 125.387 42.7382C125.407 42.518 125.433 42.2952 125.461 42.075C125.476 41.9649 125.489 41.8548 125.507 41.7447C125.517 41.6679 125.53 41.5885 125.543 41.5091C125.553 41.4297 125.566 41.3503 125.581 41.271C125.599 41.166 125.617 41.0584 125.637 40.9509C125.647 40.8869 125.66 40.8228 125.673 40.7588C125.722 40.5027 125.775 40.2467 125.834 39.9906C125.893 39.732 125.959 39.4759 126.031 39.2198C126.1 38.9612 126.176 38.7026 126.258 38.4439C126.296 38.3133 126.337 38.1853 126.383 38.0573C126.467 37.7986 126.557 37.5426 126.656 37.2891C126.702 37.1636 126.751 37.0355 126.804 36.9101C126.907 36.6566 127.014 36.4031 127.124 36.1547C127.18 36.0292 127.236 35.9037 127.297 35.7782C127.412 35.5299 127.532 35.2815 127.662 35.0382C127.788 34.7898 127.923 34.5465 128.061 34.3058C128.199 34.0651 128.342 33.8244 128.492 33.5863C128.561 33.4685 128.638 33.3481 128.717 33.2329C128.87 32.9973 129.031 32.7617 129.195 32.5313C129.524 32.0652 129.879 31.6068 130.255 31.1612ZM125.354 43.1223C125.346 43.2196 125.339 43.3169 125.333 43.4142C125.339 43.3169 125.346 43.2196 125.356 43.1223C125.356 43.1043 125.357 43.0864 125.359 43.0685C125.356 43.0864 125.356 43.1044 125.354 43.1223ZM125.671 40.7588C125.66 40.8228 125.648 40.8868 125.637 40.9508C125.648 40.8868 125.66 40.8228 125.673 40.7588H125.671ZM132.032 60.2586V60.2611C132.032 60.2637 132.034 60.2637 132.037 60.2637L132.032 60.2586Z" fill="#3F3D56"/>
<path opacity="0.3" d="M132.768 60.9138C128.728 57.4959 126.119 52.6797 125.457 47.4216C124.795 42.1635 126.129 36.8482 129.195 32.5309C128.792 32.9375 128.403 33.3632 128.027 33.8082C126.244 35.9273 124.895 38.3777 124.056 41.0197C123.217 43.6617 122.906 46.4435 123.139 49.2062C123.372 51.9689 124.146 54.6585 125.416 57.1213C126.686 59.5842 128.428 61.7721 130.541 63.5601C134.809 67.1712 140.333 68.9343 145.897 68.4616C151.461 67.989 156.61 65.3191 160.212 61.0396C160.587 60.594 160.94 60.1377 161.271 59.6706C157.543 63.427 152.542 65.6401 147.261 65.8704C141.981 66.1007 136.807 64.3314 132.768 60.9138Z" fill="black"/>
</g>
<defs>
<clipPath id="clip0_278_499">
<rect width="232" height="116" fill="white"/>
</clipPath>
</defs>
</svg>
