<svg width="112" height="112" viewBox="0 0 112 112" fill="none" xmlns="http://www.w3.org/2000/svg">
<path d="M70.3024 44.7584C71.1669 46.5205 71.5991 48.4821 71.5991 50.6432C71.5991 52.8043 71.1669 54.7659 70.3024 56.528C69.438 58.2569 68.3242 59.6367 66.9611 60.6673C64.2015 62.7952 61.3422 63.8591 58.3832 63.8591H52.1493V69.4945C52.1493 70.2592 52.1161 70.8411 52.0496 71.24C52.0163 71.6058 51.8667 72.038 51.6007 72.5367C51.1353 73.4344 49.8386 73.8832 47.7108 73.8832C45.3835 73.8832 44.0203 73.2681 43.6213 72.038C43.4219 71.4728 43.3221 70.6083 43.3221 69.4447V41.7662C43.3221 41.0015 43.3387 40.4363 43.372 40.0705C43.4385 39.6716 43.6047 39.2227 43.8707 38.724C44.3362 37.8263 45.6328 37.3775 47.7607 37.3775H58.4331C61.3589 37.3775 64.2015 38.4414 66.9611 40.5693C68.3242 41.5999 69.438 42.9963 70.3024 44.7584ZM58.4331 55.0319C59.4305 55.0319 60.4113 54.6662 61.3755 53.9347C62.3397 53.2033 62.8218 52.1061 62.8218 50.6432C62.8218 49.1803 62.3397 48.0832 61.3755 47.3517C60.4113 46.587 59.4139 46.2047 58.3832 46.2047H52.1493V55.0319H58.4331Z" fill="white"/>
<path d="M42 14L53.2 2.8L55.3159 4.91586L56 4.23171L56.6841 4.91586L58.8 2.8L81.2 25.2L79.0842 27.3159L95.8841 44.1159L98 42L109.2 53.2L107.084 55.3159L107.768 56L107.084 56.6842L109.2 58.8L86.8 81.2L84.6841 79.0842L67.8841 95.8842L70 98L58.8 109.2L56.6841 107.084L56 107.768L55.3159 107.084L53.2 109.2L30.8 86.8L32.9158 84.6841L16.1159 67.8842L14 70L2.79999 58.8L4.91585 56.6842L4.2317 56L4.91585 55.3159L2.8 53.2L25.2 30.8L27.3159 32.9159L44.1159 16.1159L42 14Z" stroke="white" stroke-width="5.98454" stroke-dasharray="11.97 23.94 35.91 47.88"/>
</svg>
